<svg width="2048" height="1373" viewBox="0 0 2048 1373" fill="none" xmlns="http://www.w3.org/2000/svg">
<g clip-path="url(#clip0_11_43)">
<g clip-path="url(#clip1_11_43)">
<path fill-rule="evenodd" clip-rule="evenodd" d="M908.399 1162.69C901.978 1155.76 894.251 1150.12 885.551 1145.44C886.411 1136.85 887.429 1126.57 888.487 1115.56C893.834 1115.23 902.746 1114.58 913.029 1113.48C929.733 1111.68 940.442 1056.85 932.121 1034.73C923.966 1013.06 908.255 1022.4 904.676 1029.36C899.831 1038.77 907.808 1081.25 908.255 1090.21C908.529 1095.69 897.392 1095.6 890.43 1095.02C892.629 1071.25 894.705 1047.03 895.625 1031.15C897.853 992.717 870.958 992.253 867.381 992.359C863.81 992.253 836.912 992.717 839.14 1031.15C840.063 1047.03 842.139 1071.25 844.337 1095.02C837.376 1095.6 826.238 1095.69 826.512 1090.21C826.96 1081.25 834.934 1038.77 830.092 1029.36C826.512 1022.4 810.802 1013.06 802.646 1034.73C794.323 1056.85 805.032 1111.68 821.739 1113.48C832.022 1114.58 840.934 1115.23 846.281 1115.56C846.823 1121.21 847.355 1126.67 847.86 1131.81C811.735 1123.22 768.66 1122 729.764 1118.06C664.441 1111.46 630.674 1069.67 544.399 1034.38C458.121 999.091 445.632 1018.49 391.747 1010.09C337.857 1001.68 290.095 890.597 206.089 817.166C122.085 743.735 45.4336 851.095 -38.9581 860.269C-123.355 869.443 -142.268 920.659 -186.644 942.738L-242.165 1379.86C-242.165 1379.86 -95.0247 1344.57 -29.1772 1342.37C36.6703 1340.18 409.029 1404.4 499.655 1404.71C590.286 1405.02 521.855 1374.49 573.688 1341.36C625.515 1308.23 697.596 1315.52 780.946 1323.95C864.29 1332.38 974.863 1302.24 993.955 1248.09C1013.04 1193.94 944.594 1201.77 908.399 1162.69Z" fill="url(#paint0_linear_11_43)"/>
<path fill-rule="evenodd" clip-rule="evenodd" d="M2180.26 1135.44C2173.46 1076.9 2125.37 1057.67 2055.61 1033.18C1985.85 1008.67 1958.28 899.337 1902.51 926.77C1874.02 940.787 1837.46 911.243 1803.89 951.438C1788.78 969.52 1771.37 985.649 1749.62 991.719C1679.53 1011.27 1674.44 1046.65 1637.97 1085.84C1609.43 1116.51 1581.45 1071.61 1547.51 1051.29C1548.49 1041.68 1550.2 1024.77 1552.04 1005.67C1557.38 1005.33 1566.3 1004.69 1576.58 1003.58C1593.28 1001.79 1603.99 946.96 1595.67 924.838C1587.52 903.163 1571.81 912.508 1568.23 919.468C1563.38 928.881 1571.36 971.36 1571.81 980.317C1572.08 985.795 1560.94 985.708 1553.98 985.125C1556.18 961.358 1558.25 937.135 1559.17 921.259C1561.4 882.823 1534.51 882.359 1530.93 882.465C1527.36 882.359 1500.46 882.823 1502.69 921.259C1503.61 937.135 1505.69 961.358 1507.89 985.125C1500.93 985.708 1489.79 985.795 1490.06 980.317C1490.51 971.36 1498.48 928.881 1493.64 919.468C1490.06 912.508 1474.35 903.163 1466.2 924.838C1457.88 946.96 1468.58 1001.79 1485.29 1003.58C1495.57 1004.69 1504.48 1005.33 1509.83 1005.67C1511.19 1019.79 1512.48 1032.71 1513.45 1042.39C1496.59 1043.5 1479.71 1047.93 1464.27 1045.01C1463.91 1030.09 1463.31 1004.14 1463.31 1003.45C1463.31 1002.65 1460.64 1033.3 1459.74 1043.7L1459.56 1043.85L1459.48 1043.83L1459.33 1043.68L1458.32 1013.14C1458.31 1012.89 1457.95 1012.87 1457.91 1013.12L1455.23 1033.28C1455.19 1033.53 1454.83 1033.51 1454.82 1033.25L1454.22 995.213C1454.21 994.953 1453.83 994.945 1453.81 995.205L1451.74 1026.82C1451.72 1027.08 1451.34 1027.07 1451.33 1026.81L1449.07 969.932L1448.63 1027.39C1448.63 1027.66 1448.24 1027.67 1448.23 1027.41L1445.22 980.298L1446.5 1037.31C1446.22 1037.09 1445.95 1036.92 1445.66 1036.71L1443.67 1021.38C1443.64 1021.13 1443.27 1021.15 1443.27 1021.4C1443.25 1024.49 1443.21 1029.62 1443.18 1034.96C1425.78 1023.37 1414.66 1027.07 1389.58 1017.11C1334.28 995.148 1324.45 1091.88 1241.67 1112.12C1195.03 1123.53 1155.54 1275.23 1141.26 1249.19C1126.99 1223.16 1088.88 1186.2 1038.13 1199.35C987.387 1212.5 929.852 1281.61 922.506 1296.5C1045.4 1310.72 1514.97 1409.31 1514.97 1409.31L1962.93 1493.83L2248.33 1386.1C2248.33 1386.1 2187.06 1193.98 2180.26 1135.44Z" fill="url(#paint1_linear_11_43)"/>
</g>
</g>
<defs>
<linearGradient id="paint0_linear_11_43" x1="377.29" y1="1404.4" x2="378.869" y2="792.237" gradientUnits="userSpaceOnUse">
<stop stop-color="#76459B"/>
<stop offset="0.41" stop-color="#5A2D8C"/>
<stop offset="0.73" stop-color="#4A2D81"/>
<stop offset="1" stop-color="#472D7E"/>
</linearGradient>
<linearGradient id="paint1_linear_11_43" x1="1585.03" y1="1492.86" x2="1586.6" y2="882.598" gradientUnits="userSpaceOnUse">
<stop stop-color="#76459B"/>
<stop offset="0.41" stop-color="#5A2D8C"/>
<stop offset="0.73" stop-color="#4A2D81"/>
<stop offset="1" stop-color="#472D7E"/>
</linearGradient>
<clipPath id="clip0_11_43">
<rect width="2048" height="1373" fill="white"/>
</clipPath>
<clipPath id="clip1_11_43">
<rect width="2049" height="1373" fill="white"/>
</clipPath>
</defs>
</svg>
