<svg width="2048" height="1373" viewBox="0 0 2048 1373" fill="none" xmlns="http://www.w3.org/2000/svg">
<g clip-path="url(#clip0_11_43)">
<g clip-path="url(#clip1_11_43)">
<path fill-rule="evenodd" clip-rule="evenodd" d="M2126.67 1006.25C2107.6 979.861 2074.06 985.412 2041.33 998.711C2012.01 1010.61 1996.03 1054.15 1978.95 1061.11C1967.18 1065.9 1936.69 1064.73 1903.79 1069.56C1907.58 1057.2 1911.59 1042.82 1913.23 1029.4L1922.96 1020.28L1913.86 1022.22C1914.96 1001.53 1908.79 984.78 1884.74 984.419C1868.29 984.175 1861.89 991.227 1860.01 1001.64L1843.1 1001.53L1858.74 1011.1L1859.37 1008.88C1859.24 1018.52 1861.37 1029.87 1862.67 1040.72L1852.21 1047.34L1863.31 1047.1C1864.1 1056.89 1863.64 1065.87 1859.48 1072.29C1850.97 1085.42 1829.34 1088.44 1821.15 1089.12C1819.5 1049.15 1817.47 997.034 1816.7 966.19C1816.24 947.563 1817.63 927.288 1819.43 907.567C1830.44 906.451 1863.68 901.418 1870.13 881.01C1872.7 872.894 1875.94 862.57 1877.68 852.595L1877.81 852.831L1891.19 840.298L1878.85 842.924C1879.62 828.809 1875.45 817.366 1859.06 817.122C1849.35 816.978 1844.81 820.585 1842.94 826.169L1829.48 826.082L1841.82 833.633C1841.59 847.567 1848.4 866.803 1841.89 876.84C1837.54 883.563 1828.14 886.375 1821.38 887.56C1822.2 879.423 1823 871.535 1823.69 864.043L1833.71 854.668L1824.34 856.66C1825.81 838.925 1826.32 823.993 1824.23 814.458C1823.62 811.682 1822.86 809.177 1822 806.884L1829.92 799.46L1819.65 801.65C1809.41 782.539 1790.33 784.222 1790.33 784.222C1773.28 785.641 1761.07 786.317 1757.61 810.273L1746.29 810.203L1756.95 816.729C1756.03 832.146 1760.22 856.131 1764.21 883.65L1749.31 883.558L1764.95 893.126L1765.35 891.715C1768.15 911.919 1770.58 933.678 1770.66 955.13C1770.74 975.085 1769.57 988.72 1768.12 997.916C1766.56 1007.9 1755.17 1012.98 1746.7 1007.46C1737.5 1001.45 1727.11 992.82 1722.26 983.868C1719.18 978.197 1718.3 970.714 1718.43 962.424L1729.33 952.222L1718.81 954.46C1721.15 923.356 1732 885.721 1698.81 886.315C1677.94 886.684 1670.17 903.439 1669.51 924.561L1655.91 925.861L1669.57 932.419C1670.41 951.258 1675.94 972.222 1682.46 987.825L1672.94 997.455L1685.49 994.274C1697.14 1015.65 1722.83 1026.17 1741.68 1031.1C1759.44 1035.75 1772.86 1050.43 1775.63 1068.58C1777.06 1077.97 1777.67 1088.24 1777.82 1098.06C1766.51 1098.86 1756.18 1099.3 1747.59 1099.98C1746.96 1086.15 1746.37 1073.07 1746.37 1072.54C1746.37 1071.94 1743.83 1086.78 1741.49 1100.55C1739.62 1100.76 1737.87 1100.99 1736.24 1101.26L1735.12 1083.8C1735.1 1083.51 1734.28 1083.49 1734.2 1083.78L1729.26 1102.85C1728.62 1103.06 1728.02 1103.28 1727.46 1103.52L1727.11 1103.69L1725.86 1062.98C1725.85 1062.68 1724.98 1062.67 1724.94 1062.97L1720.27 1099.69C1720.23 1099.99 1719.37 1099.98 1719.34 1099.68L1714.25 1033.62L1713.26 1100.36C1713.25 1100.66 1712.38 1100.68 1712.34 1100.37L1705.54 1045.66L1708.58 1114.88C1708.26 1115.08 1707.95 1115.29 1707.63 1115.5L1702.06 1093.37C1701.99 1093.08 1701.14 1093.1 1701.14 1093.4C1701.07 1099.12 1700.92 1110.76 1700.8 1119.96C1673.6 1137.63 1633.42 1161.35 1591.77 1155.37C1551.53 1149.59 1519.69 1119.47 1489.53 1100.42C1442.94 1071 1412.23 1084.09 1373.15 1104.52C1349.69 1116.78 1323.2 1131.69 1288.45 1141.62C1195.81 1168.11 1218.41 1194.59 1168.7 1218.13C1118.99 1241.68 1077.93 1183.65 1029.08 1183.65C985.626 1183.65 963.098 1250.5 908.874 1256.39C867.831 1260.84 847.594 1221.07 801.205 1202.39C800.632 1178.12 799.837 1144.18 799.837 1143.18C799.837 1142.06 796.586 1179.33 794.789 1200.02C794.255 1199.83 793.712 1199.66 793.169 1199.48L791.82 1158.77C791.807 1158.37 791.221 1158.34 791.166 1158.74L786.843 1191.16C786.789 1191.57 786.194 1191.53 786.186 1191.13L785.223 1129.94C785.215 1129.52 784.593 1129.5 784.566 1129.92L781.233 1180.78C781.206 1181.19 780.596 1181.18 780.579 1180.77L776.945 1089.26L776.24 1181.7C776.237 1182.13 775.61 1182.14 775.583 1181.72L770.739 1105.94L772.739 1194.66C772.21 1194.58 771.697 1194.49 771.159 1194.41L768.258 1172.03C768.204 1171.62 767.607 1171.65 767.604 1172.06C767.572 1177.06 767.517 1185.34 767.46 1193.97C761.012 1193.25 754.187 1192.9 746.837 1193.07C725.156 1193.6 705.282 1191.49 686.806 1187.68C686.716 1185.56 686.616 1183.21 686.507 1180.66C692.939 1180.2 735.724 1176.28 743.336 1152.18C746.512 1142.13 750.672 1128.89 752.146 1116.77L759.175 1110.19L752.607 1111.58C753.4 1096.64 748.943 1084.54 731.569 1084.28C719.687 1084.1 715.063 1089.2 713.709 1096.72L701.491 1096.64L712.789 1103.55L713.245 1101.94C713.15 1108.91 714.688 1117.11 715.625 1124.95L708.075 1129.73L716.091 1129.56C716.659 1136.63 716.33 1143.11 713.326 1147.75C707.182 1157.24 691.552 1159.42 685.639 1159.91C684.447 1131.03 682.976 1093.39 682.425 1071.11C682.094 1057.66 683.093 1043.01 684.396 1028.76C692.345 1027.96 716.36 1024.33 721.02 1009.58C722.871 1003.72 725.213 996.263 726.475 989.059L726.564 989.228L736.229 980.175L727.316 982.075C727.875 971.878 724.86 963.613 713.019 963.436C706.007 963.33 702.728 965.935 701.374 969.97L691.658 969.908L700.568 975.362C700.4 985.426 705.317 999.322 700.62 1006.57C697.477 1011.43 690.687 1013.46 685.802 1014.32C686.396 1008.44 686.977 1002.74 687.473 997.33L694.703 990.554L687.94 991.995C689.001 979.182 689.376 968.399 687.864 961.512C687.424 959.504 686.876 957.695 686.249 956.039L691.976 950.678L684.553 952.257C677.158 938.454 663.374 939.669 663.374 939.669C651.058 940.698 642.238 941.181 639.741 958.487L631.559 958.438L639.266 963.151C638.596 974.29 641.622 991.613 644.504 1011.49L633.746 1011.42L645.041 1018.34L645.332 1017.31C647.354 1031.91 649.11 1047.63 649.167 1063.13C649.224 1077.53 648.377 1087.39 647.335 1094.03C646.203 1101.25 637.977 1104.91 631.857 1100.92C625.211 1096.58 617.704 1090.35 614.201 1083.88C611.981 1079.78 611.348 1074.38 611.441 1068.39L619.308 1061.02L611.712 1062.64C613.405 1040.17 621.238 1012.99 597.263 1013.41C582.195 1013.68 576.578 1025.79 576.1 1041.04L566.281 1041.98L576.149 1046.72C576.757 1060.33 580.746 1075.47 585.458 1086.74L578.575 1093.69L587.648 1091.4C596.061 1106.84 614.616 1114.44 628.231 1118C641.066 1121.36 650.757 1131.96 652.757 1145.07C654.434 1156.05 654.551 1168.72 654.22 1178.92C605.367 1162.84 566.173 1137.18 527.038 1123.97C504.879 1116.48 486.004 1116.78 467.59 1119.75C471.476 1115.69 474.51 1111 476.231 1105.56C480.625 1091.64 486.381 1073.31 488.425 1056.53L498.154 1047.42L489.062 1049.35C490.156 1028.66 483.99 1011.91 459.937 1011.55C443.485 1011.31 437.088 1018.36 435.213 1028.77L418.3 1028.67L433.937 1038.23L434.572 1036.01C434.437 1045.65 436.565 1057.01 437.864 1067.86L427.41 1074.47L438.51 1074.24C439.295 1084.02 438.841 1093 434.681 1099.42C426.173 1112.56 404.54 1115.58 396.35 1116.26C394.703 1076.28 392.667 1024.17 391.904 993.325C391.443 974.697 392.827 954.422 394.629 934.701C405.637 933.586 438.882 928.552 445.33 908.144C447.892 900.029 451.135 889.704 452.883 879.729L453.008 879.965L466.388 867.432L454.05 870.059C454.821 855.943 450.65 844.501 434.258 844.257C424.547 844.113 420.007 847.719 418.14 853.303L404.684 853.216L417.019 860.768C416.786 874.701 423.595 893.937 417.092 903.974C412.739 910.698 403.338 913.509 396.575 914.695C397.397 906.557 398.203 898.669 398.89 891.177L408.902 881.802L399.539 883.794C401.007 866.059 401.52 851.127 399.43 841.592C398.822 838.816 398.062 836.312 397.194 834.019L405.118 826.595L394.846 828.785C384.607 809.674 365.528 811.356 365.528 811.356C348.476 812.775 336.267 813.451 332.809 837.408L321.484 837.337L332.152 843.863C331.224 859.281 335.414 883.265 339.407 910.785L324.507 910.692L340.148 920.26L340.549 918.849C343.353 939.053 345.779 960.812 345.858 982.265C345.936 1002.22 344.764 1015.85 343.323 1025.05C341.757 1035.04 330.367 1040.12 321.896 1034.59C312.696 1028.59 302.302 1019.95 297.452 1011C294.38 1005.33 293.501 997.848 293.628 989.558L304.525 979.356L294.008 981.595C296.353 950.49 307.195 912.855 274.004 913.449C253.142 913.818 245.367 930.574 244.705 951.695L231.114 952.995L244.77 959.553C245.611 978.393 251.137 999.357 257.656 1014.96L248.132 1024.59L260.69 1021.41C272.338 1042.78 298.025 1053.31 316.878 1058.24C334.644 1062.88 348.061 1077.56 350.829 1095.71C352.583 1107.2 353.101 1120.03 353.055 1131.7C288.716 1119.33 272.037 1052.95 215.243 1041.57L214.583 1041.46C213.612 1020.33 211.78 980.227 211.78 979.199C211.78 978.04 204.289 1022.39 201.755 1037.43C201.692 1037.8 200.634 1037.77 200.609 1037.4L197.768 993.222C197.743 992.858 196.718 992.834 196.625 993.192L189.067 1022.35C188.972 1022.71 187.935 1022.68 187.924 1022.32L186.236 967.287C186.223 966.909 185.135 966.896 185.088 967.276L179.264 1013.01C179.218 1013.39 178.146 1013.38 178.116 1013L171.771 930.709L170.536 1013.84C170.531 1014.22 169.437 1014.24 169.391 1013.86L160.921 945.709L164.748 1032.95C164.761 1033.33 163.697 1033.37 163.605 1033L156.587 1005.15C156.495 1004.78 155.447 1004.8 155.442 1005.17C155.32 1014.68 155.029 1037.35 154.893 1048.36C66.7241 1070.39 -70.5128 1132.5 -89.7707 1141.62L-218.554 1374.1H472.814C472.814 1374.1 2217.05 1432.96 2232.86 1403.53C2248.68 1374.1 2162.82 1056.28 2126.67 1006.25Z" fill="url(#paint0_linear_11_43)"/>
</g>
</g>
<defs>
<linearGradient id="paint0_linear_11_43" x1="1008.05" y1="1409.12" x2="1009.66" y2="782.165" gradientUnits="userSpaceOnUse">
<stop stop-color="#472D7E"/>
<stop offset="0.75" stop-color="#271E58"/>
<stop offset="1" stop-color="#161E46"/>
</linearGradient>
<clipPath id="clip0_11_43">
<rect width="2048" height="1373" fill="white"/>
</clipPath>
<clipPath id="clip1_11_43">
<rect width="2049" height="1373" fill="white"/>
</clipPath>
</defs>
</svg>
