<svg width="2048" height="1373" viewBox="0 0 2048 1373" fill="none" xmlns="http://www.w3.org/2000/svg">
<g clip-path="url(#clip0_11_43)">
<path d="M748.5 279C990.125 279 1186 474.875 1186 716.5C1186 958.125 990.125 1154 748.5 1154C506.875 1154 311 958.125 311 716.5C311 474.875 506.875 279 748.5 279ZM748.805 440C595.931 440 472 563.909 472 716.757C472 869.605 595.93 993.514 748.805 993.515C901.679 993.515 1025.61 869.605 1025.61 716.757C1025.61 563.909 901.679 440 748.805 440Z" fill="url(#paint0_linear_11_43)"/>
<path d="M749.253 993.352C596.378 993.352 472.448 869.443 472.448 716.595C472.448 563.747 596.378 439.838 749.253 439.838C902.127 439.838 1026.06 563.747 1026.06 716.595C1026.06 869.443 902.127 993.352 749.253 993.352Z" fill="#FBD3DC"/>
</g>
<defs>
<linearGradient id="paint0_linear_11_43" x1="1012.16" y1="1368.8" x2="1012.16" y2="15.2422" gradientUnits="userSpaceOnUse">
<stop stop-color="#F8AEB1"/>
<stop offset="0.58" stop-color="#F19BAE"/>
<stop offset="1" stop-color="#E077AF"/>
</linearGradient>
<clipPath id="clip0_11_43">
<rect width="2048" height="1373" fill="white"/>
</clipPath>
</defs>
</svg>
