<svg width="2048" height="1373" viewBox="0 0 2048 1373" fill="none" xmlns="http://www.w3.org/2000/svg">
<g clip-path="url(#clip0_11_43)">
<path fill-rule="evenodd" clip-rule="evenodd" d="M1936.99 1009.97C1936.7 1009.97 1936.41 1009.95 1936.12 1009.93L1452.68 966.844C1448.74 966.494 1446.33 963.944 1447.72 961.599L1466.71 929.488C1466.92 929.141 1467.04 928.775 1467.08 928.406L1481.73 801.11C1481.97 799.062 1484.67 797.477 1487.94 797.477C1500.31 797.477 1510.72 791.643 1512.14 783.91L1513.17 778.298C1513.52 776.388 1516.02 774.923 1519.07 774.836L1537.92 774.296C1538.01 774.293 1538.11 774.291 1538.2 774.291C1541.47 774.291 1544.21 775.889 1544.42 777.959L1549 852.218C1549.21 854.353 1552.05 855.889 1555.21 855.889C1555.93 855.889 1556.67 855.808 1557.4 855.637L1567.25 824.44C1569.8 823.838 1571.43 822.264 1571.28 820.552L1575.49 748.231C1575.29 746.041 1577.99 744.179 1581.48 744.098L1593.8 730.156C1597.39 730.075 1600.12 728.108 1599.77 725.864L1606.03 665.072C1605.66 662.692 1608.69 660.771 1612.22 660.771C1612.87 660.771 1613.53 660.836 1614.2 660.977L1616.2 662.122C1616.85 662.258 1617.38 662.323 1617.82 662.323C1619.62 662.323 1619.9 661.235 1620.72 659.539L1627.95 638.081C1628.76 636.41 1631.2 635.3 1633.91 635.3C1634.21 635.3 1634.52 635.314 1634.83 635.344L1639.83 637.818C1642.86 638.1 1645.11 639.728 1645.14 641.655L1662.25 723.97C1662.28 725.533 1663.78 726.936 1666.07 727.541L1684.98 732.552C1687.1 733.114 1688.56 734.362 1688.77 735.8L1688.98 737.228C1689.33 739.599 1692.25 740.782 1695.18 740.782C1698.11 740.782 1701.04 739.591 1701.38 737.211L1712.67 657.45C1712.96 655.428 1715.65 653.879 1718.88 653.879H1721.89C1724.83 653.879 1727.37 652.587 1727.98 650.778L1748.06 591.581C1748.59 590.021 1750.57 588.819 1753.06 588.542L1767.17 586.976C1770.14 586.645 1772.31 585.02 1772.31 583.118L1776.66 560.097C1776.66 558.011 1779.26 556.29 1782.58 556.187L1798.93 555.672C1799.03 555.669 1799.14 555.666 1799.24 555.666C1802.14 555.666 1804.67 556.928 1805.32 558.724L1810.4 559.78C1811.24 562.119 1815.15 569.019 1818.61 569.019C1818.87 569.019 1819.13 568.978 1819.39 568.894L1831.88 564.734C1834.11 563.991 1835.41 555.962 1835.16 554.38L1835.54 535.318C1835.21 533.18 1837.67 531.272 1841.07 531.042L1910.47 507.877C1911.41 507.562 1912.43 507.413 1913.44 507.413C1915.87 507.413 1918.2 508.276 1919.04 509.795L1919.26 510.273L1925.81 588.686C1926.5 590.724 1929.21 591.782 1931.91 591.782C1934.35 591.782 1936.79 590.925 1937.78 589.155L1945.84 481.193C1946.72 479.608 1949.1 478.566 1951.72 478.566C1951.91 478.566 1952.09 478.572 1952.28 478.583L2018.31 492.866C2021.71 493.056 2024.24 494.934 2023.97 497.075L2034 503.343C2033.77 505.223 2035.7 521.17 2038.6 521.659L2047.71 524.171V904.183L1942.24 1008.15C1941.08 1009.29 1939.1 1009.97 1936.99 1009.97Z" fill="url(#paint0_linear_11_43)"/>
<path fill-rule="evenodd" clip-rule="evenodd" d="M17.2306 948.515C15.6213 948.515 14.1123 948.038 13.1435 947.185L0 935.588V482.113C0.569921 481.994 1.16698 481.928 1.76675 481.928C2.43166 481.928 3.09928 482.007 3.72891 482.173L66.5043 498.676H66.583C69.5493 498.676 71.8181 500.255 71.6879 502.239L73.4411 519.843C73.3434 521.322 74.5972 522.635 76.6163 523.165L87.9089 526.125C88.5412 526.293 89.1953 526.369 89.8412 526.369C92.547 526.369 95.1333 525.012 95.6218 523.083L100.018 521.743C100.463 519.976 102.738 518.595 105.405 518.468L119.83 517.781C119.963 517.776 120.096 517.773 120.226 517.773C122.967 517.773 125.174 519.138 125.323 520.98L130.867 541.966C131.011 543.724 133.041 545.076 135.685 545.168L148.201 545.618C150.418 545.694 152.25 546.668 152.834 548.074L174.911 601.407C175.527 602.894 177.522 603.868 179.829 603.868C180.051 603.868 180.274 603.86 180.499 603.841L183.153 603.629C183.379 603.61 183.604 603.599 183.824 603.599C186.372 603.599 188.505 604.788 188.874 606.489L204.762 679.47C205.19 681.442 207.424 682.362 209.758 682.362C212.57 682.362 215.53 681.03 215.672 678.604L215.75 677.269C215.829 675.923 217.015 674.664 218.836 673.994L235.103 668.019C237.068 667.294 238.281 665.889 238.186 664.442L233.168 588.208C233.049 586.426 234.91 584.76 237.556 584.285L260.728 580.109C261.219 580.022 261.713 579.979 262.193 579.979C264.316 579.979 266.221 580.806 266.973 582.157L277.671 601.271C278.439 602.638 280.36 603.447 282.458 603.447C283.242 603.447 284.054 603.336 284.838 603.094L289.552 601.648C290.35 601.407 291.156 601.293 291.935 601.293C294.766 601.293 297.178 602.785 297.04 604.858L293.287 661.759C293.156 663.756 295.452 665.322 298.391 665.322C298.546 665.322 298.701 665.316 298.858 665.308L303.518 665.045C301.583 681.963 300.59 699.161 300.59 716.595C300.59 779.045 313.356 838.52 336.416 892.545L18.6635 948.39C18.1832 948.474 17.7028 948.515 17.2306 948.515Z" fill="url(#paint1_linear_11_43)"/>
<path fill-rule="evenodd" clip-rule="evenodd" d="M336.416 892.545C313.356 838.52 300.59 779.045 300.59 716.595C300.59 699.161 301.583 681.963 303.518 665.045L320.165 664.111C320.322 664.103 320.477 664.098 320.629 664.098C323.487 664.098 325.748 665.577 325.739 667.511L325.419 747.324C325.414 748.917 326.969 750.258 329.254 750.635L338.09 752.084C338.522 752.154 338.953 752.187 339.377 752.187C342.427 752.187 345.19 750.472 345.223 748.323L345.863 706.018C345.893 704.032 348.316 702.319 351.304 702.17L367.922 701.329C368.063 701.321 368.204 701.318 368.342 701.318C370.853 701.318 372.948 702.463 373.374 704.113L374.698 709.233C376.375 715.713 384.607 720.171 394.371 720.168C395.234 720.168 396.111 720.136 396.996 720.063C397.221 720.046 397.444 720.035 397.663 720.035C400.247 720.035 402.399 721.254 402.733 722.985L425.115 839.693C425.182 840.032 425.321 840.36 425.527 840.667L444.633 869.025C446.025 871.093 444.096 873.621 440.657 874.227L336.416 892.545Z" fill="url(#paint2_linear_11_43)"/>
</g>
<defs>
<linearGradient id="paint0_linear_11_43" x1="1024.02" y1="1385.42" x2="1024.02" y2="-2.43125" gradientUnits="userSpaceOnUse">
<stop stop-color="#B385A8"/>
<stop offset="0.55" stop-color="#AF7BA8"/>
<stop offset="1" stop-color="#A765A9"/>
</linearGradient>
<linearGradient id="paint1_linear_11_43" x1="1024.02" y1="1385.42" x2="1024.02" y2="-2.43118" gradientUnits="userSpaceOnUse">
<stop stop-color="#B184A9"/>
<stop offset="0.52" stop-color="#AF7CA8"/>
<stop offset="1" stop-color="#A465A9"/>
</linearGradient>
<linearGradient id="paint2_linear_11_43" x1="1024.02" y1="1385.42" x2="1024.02" y2="-2.43116" gradientUnits="userSpaceOnUse">
<stop stop-color="#B186AA"/>
<stop offset="0.54" stop-color="#AE7EA9"/>
<stop offset="1" stop-color="#A66AAC"/>
</linearGradient>
<clipPath id="clip0_11_43">
<rect width="2048" height="1373" fill="white"/>
</clipPath>
</defs>
</svg>
