<svg width="2048" height="1373" viewBox="0 0 2048 1373" fill="none" xmlns="http://www.w3.org/2000/svg">
<g clip-path="url(#clip0_11_43)">
<g clip-path="url(#clip1_11_43)">
<path fill-rule="evenodd" clip-rule="evenodd" d="M2943.18 1200.17C2834.08 1155.88 2884.31 1116.07 2715.75 1059.98C2668.31 1044.19 2608.27 1032.63 2565.87 1009.77C2522.44 986.354 2496.79 951.584 2460.11 930.509C2405.4 899.071 2359.03 875.719 2323.45 876.845C2240.72 879.461 2257 906.801 2197.27 915.465C2178.47 918.192 2153.93 907.075 2131.98 907.64C2084.18 908.872 2066.06 852.278 2040.93 840.385C2022.6 831.707 1970.33 846.623 1929.7 820.359C1889.08 794.093 1834.76 864.244 1792.05 879.819C1761.43 890.987 1733.22 909.843 1699.65 923.674C1662.05 939.167 1631.88 836.561 1593.9 850.696C1571.22 859.132 1508.54 912.6 1475.97 902.216C1442.02 891.389 1425.76 965.8 1392.23 984.379C1336.34 1015.34 1292.39 1002.95 1253.88 1060.33C1232.98 1091.46 1196.18 1126.87 1156.66 1160.09C1133.54 1179.53 1102.49 1180.98 1077.89 1164.11C1068.28 1157.52 1058.86 1150.81 1049.84 1144.08C1049.68 1140.74 1047.62 1095.91 1047.62 1095.02C1047.62 1094.26 1042.7 1123.39 1041.04 1133.26L1040.29 1133.25L1038.42 1104.23L1037.67 1104.21L1032.7 1123.36L1031.96 1123.34L1030.85 1087.2C1030.84 1086.95 1030.12 1086.94 1030.09 1087.19L1026.27 1117.23L1025.51 1117.22L1021.35 1063.18L1020.54 1117.77C1020.53 1118.02 1019.81 1118.03 1019.78 1117.78L1014.22 1073.03L1016.15 1117.01C1014.6 1115.65 1013.09 1114.3 1011.6 1112.94L1011.37 1112.06L1010.63 1112.07C1001.27 1103.51 993.089 1095.12 986.568 1087.05C949.425 1041.1 905.764 1052.16 851.003 1028.12C818.148 1013.7 771.344 970.475 737.792 962.88C716.338 958.023 686.306 972.941 664.023 966.554C626.698 955.858 607.063 955.833 570.127 944.016C537.161 933.469 487.45 959.982 457.356 951.541C415.388 939.767 396.187 905.884 355.582 928.175C314.982 950.469 266.047 969.737 247.772 977.21C222.73 987.45 168.002 981.559 120.761 981.592C99.0603 981.606 74.6161 991.203 56.0693 989.385C-2.84695 983.619 13.6944 960.973 -68.0675 960.633C-103.237 960.49 -149.477 980.528 -204.091 1007.35C-240.707 1025.33 -266.644 1054.23 -309.98 1074.26C-352.284 1093.82 -411.846 1104.55 -459.028 1118.45C-626.625 1167.83 -577.606 1199.2 -686.203 1237.68C-721.088 1250.04 -491.212 1211.11 -452.731 1216.8C-414.254 1222.48 -346.675 1227.18 -277.177 1221.21C-207.679 1215.23 -120.598 1272.3 -120.598 1272.3L1019.15 1263.27C1002.53 1274.61 992.218 1281.26 992.218 1281.26L2370.23 1257.87C2370.23 1257.87 2459.5 1185.5 2529.69 1190.96C2599.87 1196.42 2668.34 1188.84 2707.39 1180.83C2746.45 1172.82 2978.21 1214.4 2943.18 1200.17Z" fill="url(#paint0_linear_11_43)"/>
</g>
</g>
<defs>
<linearGradient id="paint0_linear_11_43" x1="1128.48" y1="1281.26" x2="1128.48" y2="814.531" gradientUnits="userSpaceOnUse">
<stop stop-color="#814C9E"/>
<stop offset="1" stop-color="#5E4388"/>
</linearGradient>
<clipPath id="clip0_11_43">
<rect width="2048" height="1373" fill="white"/>
</clipPath>
<clipPath id="clip1_11_43">
<rect width="2049" height="1373" fill="white"/>
</clipPath>
</defs>
</svg>
