<svg width="2048" height="1373" viewBox="0 0 2048 1373" fill="none" xmlns="http://www.w3.org/2000/svg">
<g clip-path="url(#clip0_11_43)">
<g clip-path="url(#clip1_11_43)">
<path d="M-53.1357 832.863C-28.279 823.827 193.138 747.026 251.878 756.062C310.623 765.095 326.44 819.309 396.48 826.087C466.521 832.863 502.672 803.498 563.673 819.309C624.676 835.123 685.774 874.17 783.475 872.36C873.409 870.696 891.282 925.483 945.509 920.966C999.733 916.448 1022.26 865.126 1065.72 865.126C1114.57 865.126 1155.63 909.669 1205.34 891.598C1255.04 873.526 1232.45 853.197 1325.08 832.863C1359.84 825.238 1386.32 813.793 1409.79 804.38C1448.87 788.704 1479.58 778.657 1526.17 801.238C1556.33 815.861 1588.17 838.979 1628.4 843.418C1687.64 849.947 1743.92 810.347 1764.1 803.62C1781.64 797.773 1843.1 803.493 1893.08 787.133C1939.65 771.895 1998.16 776.507 2015.59 771.059C2032.67 765.722 2048.65 732.3 2077.96 723.161C2110.7 712.953 2144.24 708.693 2163.31 728.954C2199.46 767.355 2285.31 1011.33 2269.5 1033.92C2253.68 1056.5 509.449 1011.33 509.449 1011.33H-181.919L-53.1357 832.863Z" fill="#8F78B7"/>
</g>
</g>
<defs>
<clipPath id="clip0_11_43">
<rect width="2048" height="1373" fill="white"/>
</clipPath>
<clipPath id="clip1_11_43">
<rect width="2049" height="1373" fill="white"/>
</clipPath>
</defs>
</svg>
