<svg width="2048" height="1373" viewBox="0 0 2048 1373" fill="none" xmlns="http://www.w3.org/2000/svg">
<g clip-path="url(#clip0_11_43)">
<g clip-path="url(#clip1_11_43)">
<path d="M-380.666 1240.51C-414.848 1237.17 -426.026 1206.36 -397.946 1192.79C-201.063 1097.62 261.344 859.582 367.298 849.575C495.948 837.419 604.876 745.102 739.526 800.771C797.346 824.676 854.634 835.34 897.332 862.07C954.069 897.595 992.047 946.702 1039.57 948.952C1081.21 950.924 1106.43 947.758 1138.13 947.131C1169.82 946.502 1211.53 925.953 1279.07 938.074C1312.84 944.133 1338.08 973.164 1363.81 979.644C1441.03 999.083 1490.9 1017.68 1566.41 1019.06C1667.08 1020.91 1785.22 1015.82 1843.83 1045.91C1902.44 1076.01 2006.76 1065.83 1981.82 1111.32C1956.88 1156.81 1789.77 1187.61 1661.32 1185.25C1532.87 1182.9 1421.78 1180.86 1344.97 1210.89C1268.16 1240.93 1375.51 1262.24 1236.55 1266.95C1097.59 1271.66 521.608 1239.34 420.832 1244.75C320.059 1250.16 97.3044 1287.19 97.3044 1287.19L-380.666 1240.51Z" fill="#785F9E"/>
</g>
</g>
<defs>
<clipPath id="clip0_11_43">
<rect width="2048" height="1373" fill="white"/>
</clipPath>
<clipPath id="clip1_11_43">
<rect width="2049" height="1373" fill="white"/>
</clipPath>
</defs>
</svg>
